<svg width="128" height="128" viewBox="0 0 128 128" fill="none" xmlns="http://www.w3.org/2000/svg">
<rect width="128" height="128" fill="#1E1E1E"/>
<path d="M99.345 31.64C103.025 32.3333 106.012 33.6933 108.305 35.72C110.652 37.7467 111.825 40.7867 111.825 44.84C111.825 50.76 109.692 54.9467 105.425 57.4C101.212 59.8 95.2917 61 87.665 61H69.825V5.56H85.505C93.2917 5.56 99.2383 6.68 103.345 8.92C107.452 11.1067 109.505 14.7067 109.505 19.72C109.505 22.9733 108.518 25.6133 106.545 27.64C104.625 29.6133 102.225 30.9467 99.345 31.64ZM82.945 14.84V27.72H87.825C93.3717 27.72 96.145 25.48 96.145 21C96.145 18.76 95.3983 17.1867 93.905 16.28C92.4117 15.32 90.0383 14.84 86.785 14.84H82.945ZM87.745 51.48C91.2117 51.48 93.825 50.9733 95.585 49.96C97.3983 48.8933 98.305 46.9467 98.305 44.12C98.305 39 95.105 36.44 88.705 36.44H82.945V51.48H87.745Z" fill="white"/>
<path d="M32.32 5.56V61H19.2V5.56H32.32ZM64.16 5.56L46.48 30.44L65.6 61H50.4L32.72 31.4L50.32 5.56H64.16Z" fill="white"/>
<path d="M40.8953 66.2C48.042 66.2 54.202 68.4667 59.3753 73L52.7353 79.96C50.762 78.4667 48.922 77.4 47.2153 76.76C45.562 76.0667 43.642 75.72 41.4553 75.72C37.3486 75.72 34.0686 77.3467 31.6153 80.6C29.162 83.8 27.9353 88.68 27.9353 95.24C27.9353 102.333 28.8686 107.373 30.7353 110.36C32.602 113.293 35.5086 114.76 39.4553 114.76C42.2286 114.76 44.7353 114.147 46.9753 112.92V100.36H39.7753L38.4953 91.08H59.6953V118.52C56.8153 120.387 53.642 121.827 50.1753 122.84C46.7086 123.853 43.242 124.36 39.7753 124.36C31.3486 124.36 25.002 121.907 20.7353 117C16.4686 112.04 14.3353 104.787 14.3353 95.24C14.3353 89.16 15.482 83.9333 17.7753 79.56C20.122 75.1867 23.2953 71.88 27.2953 69.64C31.3486 67.3467 35.882 66.2 40.8953 66.2Z" fill="white"/>
<path d="M95.0004 94.3871V123H94.4574L78.4574 80.0405C78.9907 84.2535 79.3909 87.9865 79.6576 91.2397C79.9776 94.4397 80.138 98.2534 80.138 102.68V123H68.4574V67.56H84.7777L95.0004 94.3871Z" fill="white"/>
<path d="M99 68H111V123H99V68Z" fill="white"/>
</svg>
