<svg width="98" height="120" viewBox="0 0 98 120" fill="none" xmlns="http://www.w3.org/2000/svg">
<path d="M85.345 26.64C89.025 27.3333 92.0117 28.6933 94.305 30.72C96.6517 32.7467 97.825 35.7867 97.825 39.84C97.825 45.76 95.6917 49.9467 91.425 52.4C87.2117 54.8 81.2917 56 73.665 56H55.825V0.559998H71.505C79.2917 0.559998 85.2383 1.68 89.345 3.92C93.4517 6.10667 95.505 9.70667 95.505 14.72C95.505 17.9733 94.5183 20.6133 92.545 22.64C90.625 24.6133 88.225 25.9467 85.345 26.64ZM68.945 9.84V22.72H73.825C79.3717 22.72 82.145 20.48 82.145 16C82.145 13.76 81.3983 12.1867 79.905 11.28C78.4117 10.32 76.0383 9.84 72.785 9.84H68.945ZM73.745 46.48C77.2117 46.48 79.825 45.9733 81.585 44.96C83.3983 43.8933 84.305 41.9467 84.305 39.12C84.305 34 81.105 31.44 74.705 31.44H68.945V46.48H73.745Z" fill="white"/>
<path d="M18.32 0.559998V56H5.2V0.559998H18.32ZM50.16 0.559998L32.48 25.44L51.6 56H36.4L18.72 26.4L36.32 0.559998H50.16Z" fill="white"/>
<path d="M26.8953 61.2C34.042 61.2 40.202 63.4667 45.3753 68L38.7353 74.96C36.762 73.4667 34.922 72.4 33.2153 71.76C31.562 71.0667 29.642 70.72 27.4553 70.72C23.3486 70.72 20.0686 72.3467 17.6153 75.6C15.162 78.8 13.9353 83.68 13.9353 90.24C13.9353 97.3333 14.8686 102.373 16.7353 105.36C18.602 108.293 21.5086 109.76 25.4553 109.76C28.2286 109.76 30.7353 109.147 32.9753 107.92V95.36H25.7753L24.4953 86.08H45.6953V113.52C42.8153 115.387 39.642 116.827 36.1753 117.84C32.7086 118.853 29.242 119.36 25.7753 119.36C17.3486 119.36 11.002 116.907 6.73531 112C2.46865 107.04 0.335312 99.7867 0.335312 90.24C0.335312 84.16 1.48198 78.9333 3.77531 74.56C6.12198 70.1867 9.29531 66.88 13.2953 64.64C17.3486 62.3467 21.882 61.2 26.8953 61.2Z" fill="white"/>
<mask id="mask0_15_20" style="mask-type:alpha" maskUnits="userSpaceOnUse" x="54" y="62" width="44" height="56">
<path d="M97.1778 118H80.4578L64.4578 75.04C64.9911 79.2533 65.3911 82.9867 65.6578 86.24C65.9778 89.44 66.1378 93.2533 66.1378 97.68V118H54.4578V62.56H70.7778L87.1778 105.6C86.0045 98.2933 85.4178 91.4133 85.4178 84.96V62.56H97.1778V118Z" fill="white"/>
</mask>
<g mask="url(#mask0_15_20)">
<path d="M81 62H50V119H81V62Z" fill="white"/>
</g>
<rect x="85" y="63" width="12" height="55" fill="white"/>
</svg>
